<svg xmlns="http://www.w3.org/2000/svg" width="680" height="680" viewBox="0 0 680 680" ><path fill="none" d="M0 680h680V0H0v680M359 18c17.39.74 34.02 4.53 51 7 3.66.68 8 1.22 11 3 6.65.5 12.42 4.16 19 5 1.81 1.41 4.84.83 6 3 1.83-.23 3.47.07 5 1 2.62.86 6 1.23 8 3 13.19 5.88 29.41 9.77 40 19 10.09 3.42 19.91 9.11 27 17-.39-3.11 3.48-.46 5 0 14.45-13.37 39.86-21.2 57.25-7.25C607.7 84.13 599.92 110.56 603 132c13.52-.23 27.87 6.66 33.31 19.7 5.59 14.74-.52 29.68-9.31 41.3.38-.21 1 0 1 0 3.02 1.76 4.35 5.14 6 8 1.67 2.51 3.57 4.97 4 8 1.22 1.9 2.51 4.55 3 7 3.14 8.63 7.09 16.99 9 26 1.71 2.72 3.09 6.43 3 10 3.72 13.71 7.05 27.55 8 42 1.75.83.66 3.44 1 5v3c2.08 2.1.5 6.15 1 9v1c2.22 3.75.41 9.49 1 14v5c1.63 5.59 1.69 14.48 0 20v5c.03 7.75-.33 16.06-2 23-.63 14.51-4.6 28.17-8 42-.12 2.05-.5 4.7-2 6-1.34 12.29-6.37 23.68-11 35-1.06 2.56-.55 6.26-3 8-.75 7.46-6.45 13.07-9 20-.27 1.83-1.02 4.3-3 5-.39 3-2.41 5.5-4 8-1.55 1.55-1.83 4.17-4 5 .53 1.28-.97 1.86-1 3-1.44 1.92-1.5 5.04-4 6-4.51 8.28-9.63 16.67-16 24-3.51 4.1-6.38 8.97-11 12-.2.4 0 1 0 1-2.21 2.96-5.02 5.9-8 8-.3 1.25-1.83 1.71-2 3-10.94 11.94-24.15 21.84-36 32-.32.24-1 0-1 0-7.42 7.57-17.27 12.14-26 18-2.28.55-3.59 2.99-6 3-3.39 3.72-8.89 5.01-13 8-3.73 1.58-7.04 4.13-11 5-2.79 2.18-6.45 4.08-10 5-5.59 2.6-10.96 5.83-17 7-2.25 1.17-5.32 2.18-8 3-9.84 2.41-18.82 7.65-29 9-2.7 1.46-6.67 1.58-10 2-11.89 2.38-23.59 5.58-36 6-.83 1.75-3.44.66-5 1h-5c-1.77 2.03-5.48.53-8 1h-5c-7.26 1.64-17.81 1.68-25 0h-3c-2.52-.56-6.3 1.19-8-1-23.03-1.56-45.27-6.45-67-13-1.81.14-4.08-.44-5-2-14-3.24-27.21-9.46-40-16-5.23-1.82-10.86-4.4-15-8-1.82.55-2.47-1.75-4-2-2.55-1.83-6.43-2.07-8-5-5.4-1.98-10.06-5.93-15-9-3.62-1.87-6.96-4.63-10-7-1.25-.3-1.71-1.83-3-2-6.83-5.41-14.46-10.12-20-17-.4-.2-1 0-1 0-4.65-3.85-9.22-8.37-13-13-2.33-.14-4.94-2.61-5-5-10.52-8.88-17.63-20.51-26-31-1.84-3.14-5.16-5.49-6-9-2.01-.98-2.64-3.36-4-5-.22-.36 0-1 0-1-1.49-1.16-2.02-3.34-3-5-1.66-3.04-4.57-5.44-5-9-2.4-1.09-2.67-4-4-6-8.47-14.72-15.37-30.23-21-46-2.29-4.42-4.11-9.83-5-15-7.86-22.44-12.98-45.72-14-70-2.21-3.42-.42-8.82-1-13v-27c.52-2.19-1.14-5.62 1-7v-5c.39-1.57-.94-4.22 1-5-.28-6.24.78-12.12 2-18 .47-1.88-1.06-4.93 1-6 .17-2.72-.61-5.67 1-8 .39-1.57-.94-4.22 1-5 1.52-12.05 5.2-23.56 9-35 .29-3.89 2.15-7.92 4-11 .74-5.71 4.25-10.56 6-16 1.22-1.55 1.26-4.02 3-5 1.12-6.14 4.86-11.64 8-17 2.19-3.2 2.68-7.8 6-10 5.05-11.07 12.46-21.22 20-31 1.72-1.97 2.37-4.95 5-6-.45-2.31 2.53-3.07 3-5 3.52-3.58 6.04-8.07 10-11 .13-.8 1.09-1.11 1-2 10.7-11.56 22-23.13 34-33 .8-.13 1.11-1.09 2-1 3.94-5.22 10.24-7.66 15-12 2.71-1.67 4.8-4.51 8-5 .6-1.82 2.56-2.15 4-3 3.43-.99 5.25-4.91 9-5 1.09-2.4 4-2.67 6-4 4.14-2.72 8.6-5.07 13-7 3.72-4.47 10.23-4.86 15-8 4.72-1.93 9.18-4.43 14-6 1.11-1.2 3.29-1.66 5-2 .49-.07 1 0 1 0 2.57-2.44 6.63-2.9 10-4 7.87-2.77 15.69-5.74 24-7 1.41-1.29 3.86-2.04 6-2 .5-.02 1 0 1 0 .83-1.75 3.44-.66 5-1 16.72-3.37 33.49-6.65 51-7 4.09-2.24 10.16-.4 15-1h4c5.16.65 11.66-1.31 16 1z"/><path fill="#152232" d="M324 18c-17.51.35-34.28 3.63-51 7-.83 1.75-3.44.66-5 1 0 0-.5-.02-1 0-1.25 1.8-3.8 2.21-6 2-8.31 1.26-16.13 4.23-24 7-2.57 2.44-6.63 2.9-10 4 0 0-.51-.07-1 0-1.05 1.43-3.1 2.23-5 2-4.82 1.57-9.28 4.07-14 6-3.75 4.37-10.3 4.69-15 8-4.4 1.93-8.86 4.28-13 7-1.09 2.4-4 2.67-6 4-3.75.09-5.57 4.01-9 5-.83 1.47-2.07 3.25-4 3-3.2.49-5.29 3.33-8 5-3.89 5.31-10.15 7.8-15 12-.89-.09-1.2.87-2 1-11.16 10.8-22.55 22.28-34 33 .09.89-.87 1.2-1 2-2.94 3.9-5.78 8.26-10 11-.47 1.93-3.45 2.69-3 5-1.72 1.97-2.37 4.95-5 6-7.54 9.78-14.95 19.93-20 31-2.19 3.2-2.68 7.8-6 10-3.14 5.36-6.88 10.86-8 17-.27 1.83-1.02 4.3-3 5-1.75 5.44-5.26 10.29-6 16-.55 3.8-2.28 7.87-4 11-3.8 11.44-7.48 22.95-9 35-.39 1.57.94 4.22-1 5-1.61 2.33-.83 5.28-1 8-.47 1.88 1.06 4.93-1 6-1.22 5.88-2.28 11.76-2 18-.39 1.57.94 4.22-1 5v5c-.52 2.19 1.14 5.62-1 7v27c2.21 3.42.42 8.82 1 13 1.02 24.28 6.14 47.56 14 70 2.29 4.42 4.11 9.83 5 15 5.63 15.77 12.53 31.28 21 46 2.4 1.09 2.67 4 4 6 .43 3.56 3.34 5.96 5 9 1.92.85 2.78 3.05 3 5 0 0-.22.64 0 1 2.17.93 3.11 3.05 4 5 .84 3.51 4.16 5.86 6 9 9.69 9.39 16.4 21.29 26 31 .06 2.39 2.67 4.86 5 5 4.65 3.85 9.22 8.37 13 13 0 0 .6-.2 1 0 6.44 6.06 14.14 10.6 20 17 1.29.17 1.75 1.7 3 2 3.59 1.44 7.67 3.69 10 7 4.94 3.07 9.6 7.02 15 9 2.55 1.83 6.43 2.07 8 5 1.53.25 2.18 2.55 4 2 5.32 1.69 10.38 5.21 15 8 12.79 6.54 26 12.76 40 16 1.6.56 4.03.5 5 2 21.73 6.55 43.97 11.44 67 13 2.52.56 6.3-1.19 8 1h33c1.77-2.03 5.48-.53 8-1h5c.83-1.75 3.44-.66 5-1 12.41-.42 24.11-3.62 36-6 2.62-1.75 6.53-2.18 10-2 10.18-1.35 19.16-6.59 29-9 1.99-1.91 4.96-3.39 8-3 6.04-1.17 11.41-4.4 17-7 2.79-2.18 6.45-4.08 10-5 3.96-.87 7.27-3.42 11-5 3.23-4.01 8.59-5.49 13-8 2.41-.01 3.72-2.45 6-3 7.62-7.18 17.78-11.34 26-18 0 0 .68.24 1 0 11.05-11.71 24.26-20.99 36-32 .17-1.29 1.7-1.75 2-3 2.21-2.96 5.02-5.9 8-8 0 0-.2-.6 0-1 3.86-3.9 6.54-8.85 11-12 6.37-7.33 11.49-15.72 16-24 1.44-1.92 1.5-5.04 4-6 .03-1.14 1.53-1.72 1-3 .97-1.85 1.79-4.24 4-5 1.59-2.5 3.61-5 4-8 1.22-1.55 1.26-4.02 3-5 2.55-6.93 8.25-12.54 9-20 1.06-2.56.55-6.26 3-8 4.63-11.32 9.66-22.71 11-35 .12-2.05.5-4.7 2-6 3.4-13.83 7.37-27.49 8-42 .09-7.72.41-16.05 2-23v-30c-2.22-3.75-.41-9.49-1-14v-1c-2.08-2.1-.5-6.15-1-9v-3c-1.75-.83-.66-3.44-1-5-.95-14.45-4.28-28.29-8-42-1.38-2.83-2.62-6.55-3-10-1.91-9.01-5.86-17.37-9-26-1.63-1.75-3.18-4.34-3-7-.43-3.03-2.33-5.49-4-8-2.74-1.92-3.91-5.41-6-8 0 0-.62-.21-1 0-.57.94-1.15 1.82-1 3-.61 3.17 1.25 7.65-1 10-.45 8.08-3.05 15.75-6 23-.68 2.8-2.07 5.98-4 8-.08.49-.02 1.5 0 2 32.37 96.98 15.03 213.77-51 292v1c-6.59 7.06-12.36 14.97-20 21h-3V294c2.47-8.44-5.46-25.95 5-28 5.07.13 9.08-3.39 14-4 3.23-4.47 8.75-5.78 13-9 1.93-1.26 3.91-3 5-5 1.89-2.62 4.35-5.24 7-7 6.28-10.92 12.99-21.41 15-34 2.21-8.2-6.1-27.4 8-25 3.51-2.12 5.82-5.99 6-10 1.08-6.66-.49-13.62-7-16-8.96-3.39-19.3-1.52-29-2-2.32-11.09-.34-24.15-1-36-1.09-10.58 3.67-23.63-6-31-2.74.03-5.08-1.63-8-1-4.99 1.16-7.61 5.99-10 10v27c1.65 7.59 1.68 18.48 0 26v5h-35c-3.5-.62-8.32 1.27-11-1-2.33-18.76-.34-39.49-1-59v-1c-2.51-4.22-7.23-5.67-11-8-20.28.95-10.88 27.33-13 41 1.64 6.59 1.68 16.48 0 23 0 .5-.02 1.5 0 2v3h-17c-6.1.29-12.64-1.09-18 2-5.99 5.47-6.39 14.67-2.23 21.23 4.2 7.49 17.9 3.91 13.23 16.77v10c1.75.83.66 3.44 1 5v3c3.06 8.59 8.06 16.94 13 25 4.52 5.32 9.7 10.55 15 15 2.55 2.2 6.18 3.17 8 6 3.26.55 5.95 2.76 9 4 4.59 2.81 13.37.86 15 7v275c-2.09 9.14 4.53 23.52-4 29-5.26 1.69-8.54 7.36-14 9-118.44 85.12-303.06 58.46-390.25-62.75C67.44 458.41 42 381.8 53.99 304.99 66.02 237.3 94.16 169.31 151 125c-2.06 2.51-3.8 5.02-5 8 36.41-39.92 85.17-64.59 136.02-76.98C341.51 40.34 406.46 50.87 460 77c1.47-2.5 3.34-4.66 5-7 1.57-2.28 3.67-4.57 6-6 1.56.41 2.69-.46 4-1 2.21-2.17 5.76-3.05 9-3 4.76-1.19 9.91-1.09 15-1-10.59-9.23-26.81-13.12-40-19-2.77-.28-6.16-.91-8-3-1.53-.93-3.17-1.23-5-1-1.99-.73-5.14-.54-6-3-6.58-.84-12.35-4.5-19-5-3.76-.27-8.1-.92-11-3-16.98-2.47-33.61-6.26-51-7-5.16-.65-11.66 1.31-16-1h-4c-4.01 2.31-10.17.35-15 1m237 186c5.33 17.37-16.36 20.32-29 18h-5c-6.47.14-12.84.12-19-1-3.83-.66-7.99-4.25-9-8-2.82-5.21.24-13.48 6-15 8.48-4.58 20.98-.73 31-2 8.95.21 21.27-2.54 25 8z"/><path fill="#FD7026" d="M146 133c-74.11 93.11-77.6 243.42-1 336 3.98 3.19 7.89 7.03 11 11 4.28 7.42 12.06 11.94 18 18 4.18 2.49 8.13 6.01 11 10 5.53 2.66 10.69 6.64 16 10 5.7 4.17 12.86 6.48 18 11 44.95 21.89 95.02 34.22 147 30 46.43-6.91 91.42-21.29 130-49 2.33-75.43.33-152.82 1-229-31.66-9.67-54.68-39.68-62-71-11.83 12.2-25.32 22.59-42.02 24.98-18.64 2.29-33.28-9.4-45.98-20.98-.22 9.86-2.81 23.46 11.07 21.93 59.98 15.04 104.96 77.53 92.15 140.29-5.5 41.21-37.64 77.47-75.91 93.09-7.72 4.41-18.63 3.25-25.23 8.77 4.04 39.11-52.08 60.34-73.83 26.67-6.43-7.25-6.81-17.07-6.25-26.75-4.86-6.79-17.35-3.86-24.23-9.77-38.05-16.07-74.72-52.86-71.77-97.23 0-49.82 76.56-62.36 96-19 2.12-9.53 8.23-28.27-8.02-26.98-39.5-9.73-76.29-38.8-86.3-79.7-16.15-54.28 12.45-112.75 61.4-138.24 9.95-4.88 20.52-8.12 31.14-10.86-4.07-36.51 45.78-55.69 70.53-30.97 7.81 8.67 11.7 19.7 10.25 31.75 32.31 1.56 58.47 24.99 79 48 5.28-12.53 19.68-12.03 31-13-.89-18.47.99-38.23 2-55-53.54-26.13-118.49-36.66-177.98-20.98C231.17 68.41 182.41 93.08 146 133z"/><path fill="#F7F7EA" d="M496 510v38c.65 11.24-1.41 25.81 5 34 5.46-1.64 8.74-7.31 14-9 7.02-6.88.13-20.59 4-29V269c-2.99-5.24-11.31-2.24-15-7-3.05-1.24-5.74-3.45-9-4-2.81-1.7-6.35-2.95-8-6-5.3-4.45-10.48-9.68-15-15-5.86-7.18-11.43-15.6-13-25v-3c-1.75-.83-.66-3.44-1-5v-10c-2.13-2.43-.47-6.82-1-10-14.63 2.24-22.12-20.51-10-28 5.36-3.09 11.9-1.71 18-2 4.61-3.22 13.3 1.76 17-3-.02-.5 0-1.5 0-2v-23c2.12-13.67-7.28-40.05 13-41 4.57.69 9.49 3.2 11 8v1c2.33 18.76.34 39.49 1 59 2.68 2.27 7.5.38 11 1 8.93-1.65 21.15-1.68 30 0h5V96c.94-4.66 4.55-10.24 10-10 2.92-.63 5.26 1.03 8 1 11.12 5.97 5.79 19.79 7 30v37c9.7.48 20.04-1.39 29 2 7.36.67 10.13 10.56 7 16-.18 4.01-2.49 7.88-6 10-1.45 1.96-4.8.56-7 1-.66 7.83 1.33 16.99-1 24-2.01 12.59-8.72 23.08-15 34-1.89 2.62-4.35 5.24-7 7-1.09 2-3.07 3.74-5 5-3.36 4.29-8.83 5.61-13 9-4.92.61-8.93 4.13-14 4-.53 1.6-2.75.72-4 1-.67 85.84 1.33 172.99-1 258v28h3c6.85-6.9 12.54-14.86 20-21v-1c.66-31.91-1.33-64.53 1-96-2.12-50.55-.49-102.05-1-153 12.71-2.68 22.99-10.88 33-19 7.33-7.22 12.43-15.99 18-24-.02-.5-.08-1.51 0-2 .69-2.8 2.07-5.98 4-8 2.95-7.25 5.55-14.92 6-23 .61-3.17-1.25-7.65 1-10-.15-1.18.43-2.06 1-3 8.79-11.62 14.9-26.56 9.31-41.3-5.44-13.04-19.79-19.93-33.31-19.7-3.08-21.44 4.7-47.87-14.75-63.25C570.86 54.8 545.45 62.63 531 76c3.3-.41.09 4.15-1 5-1.71-1.19-4.12-2.65-4-5-7.09-7.89-16.91-13.58-27-17-5.09-.09-10.24-.19-15 1-2.48 1.46-6.02 2.07-9 3-1.31.54-2.44 1.41-4 1-1.57 2.28-3.67 4.57-6 6-1.66 2.34-3.53 4.5-5 7-1.01 16.77-2.89 36.53-2 55-11.32.97-25.72.47-31 13-20.53-23.01-46.69-46.44-79-48 1.45-12.05-2.44-23.08-10.25-31.75-24.75-24.72-74.6-5.54-70.53 30.97-10.62 2.74-21.19 5.98-31.14 10.86-48.95 25.49-77.55 83.96-61.4 138.24 10.01 40.9 46.8 69.97 86.3 79.7 16.25-1.29 10.14 17.45 8.02 26.98-19.44-43.36-96-30.82-96 19-2.95 44.37 33.72 81.16 71.77 97.23 6.88 5.91 19.37 2.98 24.23 9.77-.56 9.68-.18 19.5 6.25 26.75 21.75 33.67 77.87 12.44 73.83-26.67 6.6-5.52 17.51-4.36 25.23-8.77 38.27-15.62 70.41-51.88 75.91-93.09 12.81-62.76-32.17-125.25-92.15-140.29-13.88 1.53-11.29-12.07-11.07-21.93 12.7 11.58 27.34 23.27 45.98 20.98 16.7-2.39 30.19-12.78 42.02-24.98 7.32 31.32 30.34 61.33 62 71-.67 76.18 1.33 153.57-1 229M325 105v8h3c1.88.47 4.93-1.06 6 1 9.01.97 17.75 3.85 26 7 1.83.27 4.3 1.02 5 3 10.26 4.19 19.12 11.26 28 18 6.28 5.14 12.07 11.15 16 18 4.29 10.61 10.01 22.11 7 34-.73 1.99-.54 5.14-3 6 .53 1.28-.97 1.86-1 3-1.14 2.82-3.35 5.46-6 7-1.53 1.13-3.45.91-5 2-5.74 4.12-15.59 3.8-22 2-3.35.92-5.21-2.09-8-3-4.23-2.29-7.76-5.78-10-10-.22-.36 0-1 0-1-5.66-4.85-11.22-10.37-16-16-.4-.2-1 0-1 0-1.55-1.22-4.02-1.26-5-3-5-1.58-9.83-3.81-15-5v76c6.9.4 12.93 4.11 20 4 2.05.12 4.7.5 6 2 .5.02 1 0 1 0 3.09.33 6.66 1.27 9 3 12.28 3 23.65 9.95 34 17 6.55 5.71 13.15 11.99 18 19 .73 1.34 1.34 2.64 2 4 5.59 4.7 8.36 12.14 10 19 3.04 8.61 5.16 17.53 5 27 1.6 3.93 1.7 11.14 0 15 .25 4.5-.07 8.79-1 13 .17 2.14-.11 4.84-2 6-.06 4.38-3.7 7.63-4 12-2.2 7.71-6.58 15.19-12 21-.54 1.66-2.56 2.33-3 4-4.4 5.71-9.21 11.54-15 16-16.61 13.43-35.62 22.93-57 25-1.45 1.96-4.8.56-7 1h-4v7c1.64 6.26 1.69 15.81 0 22v1c-.31 3.38-3.25 6.23-6 8-1.94.91-3.68 2.33-6 2-1.03 1.43-5.04 1.69-6 0-2.68.54-4.78-.92-7-2-1.93-1.26-3.91-3-5-5 .37-1.54-1.43-2.4-1-4-2.31-8.42-.35-18.82-1-28-6.52-1.54-13.71-.59-20-3-1.8.14-4.08-.44-5-2-5.06-1.42-10.07-3.07-15-5-3.11-1.02-7.09-2.15-9-5-6.19-3.74-12.49-7.17-18-12-5.32-4.52-10.55-9.7-15-15-6.26-9.66-13.24-19.42-15-31-1.61-4.26-1.7-11.81 0-16-.04-5.6 3.08-10.47 6-15 1.26-1.93 3-3.91 5-5 3.19-2.12 6.1-4.56 10-5 11.18-5.68 26.16.47 33 11 .3 1.25 1.83 1.71 2 3 3.17 2.64 4.67 7.16 6 11 .66 1.93 3.39 2.67 3 5 3.64 2.87 7.23 6.36 10 10 2.91.6 5.1 3.08 8 4 2.4 1.96 6.14 1.58 8 4 .49.08 1 0 1 0h6v-63c-1-5.83 2.2-13.84-2-18-.5-.02-1.5.01-2 0-2.44.08-5.4-.35-7-2-2.52.07-4.73-1.08-7-2-4.97.14-10.01-1.87-14-4-6.46-2.35-12.53-4.77-19-7-2.55-1.83-6.43-2.07-8-5-1.82.55-2.47-1.75-4-2-7.54-4.94-13.91-12.35-20-19-3.71-6.26-6.84-12.62-10-19-2.19-1.04-3.12-3.67-3-6-1.23-2.17-1.22-4.68-2-7-1.75-.83-.66-3.44-1-5 .03-.5.06-1.51 0-2-2.29-2.46-2.07-6.56-2-10v-16c.39-1.57-.94-4.22 1-5-.71-9.42 3.73-17.36 6-26 2.89-4.51 3.97-10.49 8-14 2.05-4.92 7.19-8.37 10-13 2.21-2.96 5.02-5.9 8-8 7.24-6.11 14.79-11.86 23-16 3-2.53 7.09-4.13 11-5 10.61-4.04 21.29-7.88 33-8v-12c-.15-6.23-.35-12.41 2-18 1.26-1.93 3-3.91 5-5 17.96-9.14 31.21 9.94 26 27z"/><path fill="#0F2031" d="M299 78c-1.26 1.93-3 3.91-5 5-2.35 5.59-2.15 11.77-2 18 1.57 2.94 1.71 9.13 0 12-11.71.12-22.39 3.96-33 8-3.08 2.26-7.27 3.67-11 5-8.21 4.14-15.76 9.89-23 16-2.21 2.96-5.02 5.9-8 8-2.81 4.63-7.95 8.08-10 13-2.89 4.51-3.97 10.49-8 14-2.27 8.64-6.71 16.58-6 26-.39 1.57.94 4.22-1 5v16c1.67 2.65.98 6.81 2 10 .06.49.03 1.5 0 2 1.75.83.66 3.44 1 5 .78 2.32.77 4.83 2 7 1.39 1.51 1.7 4.15 3 6 3.16 6.38 6.29 12.74 10 19 6.93 5.95 13.39 13.15 20 19 1.53.25 2.18 2.55 4 2 2.55 1.83 6.43 2.07 8 5 6.47 2.23 12.54 4.65 19 7 4.96.02 9.7 2.86 14 4 2.27.92 4.48 2.07 7 2 2.3.4 5.37.46 7 2 .5.01 1.5-.02 2 0 5.62 2.19 2.84 13.47 2 18v10c2.33 17.09.34 36.15 1 54-2.19-.52-5.62 1.14-7-1 0 0-.51.08-1 0-2.7-.89-6.56-1.08-8-4-2.9-.92-5.09-3.4-8-4-3.64-2.87-7.23-6.36-10-10 .39-2.33-2.34-3.07-3-5-2.63-3.08-3.92-7.39-6-11-.17-1.29-1.7-1.75-2-3-8.16-9.58-20.69-14.64-33-11-3.9.44-6.81 2.88-10 5-1.26 1.93-3 3.91-5 5-2.92 4.53-6.04 9.4-6 15v16c1.76 11.58 8.74 21.34 15 31 5.32 4.52 10.55 9.7 15 15 5.51 4.83 11.81 8.26 18 12 2.9 1.83 6.67 2.63 9 5 4.93 1.93 9.94 3.58 15 5 1.6.56 4.03.5 5 2 6.29 2.41 13.48 1.46 20 3 2.31 8.42.35 18.82 1 28-.43 1.6 1.37 2.46 1 4 1.93 1.26 3.91 3 5 5 2.22 1.08 4.32 2.54 7 2h6c2.32.33 4.06-1.09 6-2 2.29-2.54 4.16-5.47 6-8v-30h4c1.45-1.96 4.8-.56 7-1 21.38-2.07 40.39-11.57 57-25 5.09-5.3 9.63-11.25 15-16 .44-1.67 2.46-2.34 3-4 4.55-6.75 8.35-14.1 12-21 .3-4.37 3.94-7.62 4-12 .91-1.83.34-4.74 2-6 .93-4.21 1.25-8.5 1-13v-15c.16-9.47-1.96-18.39-5-27-3.16-6.1-5.34-13.38-10-19-.66-1.36-1.27-2.66-2-4-5.83-6.14-12.26-12.56-18-19-10.35-7.05-21.72-14-34-17-3.09-.33-6.66-1.27-9-3 0 0-.5.02-1 0-2.05-.12-4.7-.5-6-2-7.07.11-13.1-3.6-20-4v-76c5.17 1.19 10 3.42 15 5 1.83.27 4.3 1.02 5 3 0 0 .6-.2 1 0 5.66 4.85 11.22 10.37 16 16 0 0-.22.64 0 1 3.24 3.43 6.68 6.72 10 10 2.79.91 4.65 3.92 8 3 7.54.05 15.17.6 22-2 1.55-1.09 3.47-.87 5-2 2.11-2.29 3.64-5.22 6-7 .03-1.14 1.53-1.72 1-3 1.41-1.81.83-4.84 3-6 3.01-11.89-2.71-23.39-7-34-5.03-5.88-10.48-12.18-16-18-8.88-6.74-17.74-13.81-28-18-1.55-1.22-4.02-1.26-5-3-8.25-3.15-16.99-6.03-26-7-1.88-.47-4.93 1.06-6-1h-3c-1.5-1.64-1.72-6.43 0-8 5.21-17.06-8.04-36.14-26-27m-36 143c-.01-.5 0-1 0-1-4.71-6.9-4.22-19.06 2-25 .13-.46-.17-1.57 0-2 2.83-5.01 7.51-9.42 13-11 .5-.05 1 0 1 0 1.04-2.19 3.67-3.12 6-3 2.91.24 5.18-1.76 8-2 2.32 12.43.34 26.82 1 40-1.67 9 5.9 35.04-10.08 25.08-9.3-3.16-19.39-10.73-20.92-21.08m82 109c.8.13 1.11 1.09 2 1 20.44 13.91 16.92 46.41-4 58-4.91 2.03-9.25 5.91-15 6-2.92 3.8-7.45-2.78-4-5v-67h3c6.13 1.61 13.06 2.95 18 7z"/><path fill="#1A4565" d="M507 153c-.66-19.51 1.33-40.24-1-59 .66 19.51-1.33 40.24 1 59zm-215-40c1.71-2.87 1.57-9.06 0-12v12zm33 0v-8c-1.72 1.57-1.5 6.36 0 8zm9 1c-1.07-2.06-4.12-.53-6-1 1.07 2.06 4.12.53 6 1zm-86 12c3.73-1.33 7.92-2.74 11-5-3.91.87-8 2.47-11 5zm117-2c-.7-1.98-3.17-2.73-5-3 .98 1.74 3.45 1.78 5 3zm188 25c1.68-7.52 1.65-18.41 0-26v26zm-52 433c-6.41-8.19-4.35-22.76-5-34v-38c-38.58 27.71-83.57 42.09-130 49-51.98 4.22-102.05-8.11-147-30-6.19-3.28-13.22-5.88-18-11-5.31-3.36-10.47-7.34-16-10-3.68-3.36-7.81-6.45-11-10-5.94-6.06-13.72-10.58-18-18-3.98-3.19-7.89-7.03-11-11-76.6-92.58-73.11-242.89 1-336 1.2-2.98 2.94-5.49 5-8-56.84 44.31-84.98 112.3-97.01 179.99C42 381.8 67.44 458.41 110.75 519.25 197.94 640.46 382.56 667.12 501 582zm-19-433c1.68-6.52 1.64-16.41 0-23v23z"/><path fill="#1A4565" d="M615 237c1.93-2.02 3.32-5.2 4-8-1.93 2.02-3.31 5.2-4 8zm-420 4c-.34-1.56.75-4.17-1-5 .34 1.56-.75 4.17 1 5zm402 22c9.03 58.63 2.56 124.08-32 172-2.33 31.47-.34 64.09-1 96 66.03-78.23 83.37-195.02 51-292-5.57 8.01-10.67 16.78-18 24zm-19-15c2.65-1.76 5.11-4.38 7-7-2.65 1.76-5.11 4.38-7 7z"/><path fill="#FD7026" d="M565 435c34.56-47.92 41.03-113.37 32-172-10.01 8.12-20.29 16.32-33 19 .51 50.95-1.12 102.45 1 153z"/><path fill="#F7F7EA" d="M285 179c-1.51 1.39-4.15 1.7-6 3 0 0-.5-.05-1 0-4.88 2.83-9.17 6.88-13 11-.17.43.13 1.54 0 2-4.98 7.4-4.65 16.84-2 25 0 0-.01.5 0 1 4.05 12.83 17.34 20.71 30 23v-67c-2.82.24-5.09 2.24-8 2z"/><path fill="#F7F7EA" d="M324 390v5h4c5.75-.09 10.09-3.97 15-6 19.61-12.95 22.75-42.66 4-58-.89.09-1.2-.87-2-1-5.72-2.84-12.72-3.87-18-7h-3v67z"/><path fill="#F7F7EA" d="M505 198c-5.76 1.52-8.82 9.79-6 15 2.1 3.4 5.9 5.92 9 8 6.16 1.12 12.53 1.14 19 1 .74-1.39 4.32-1.65 5 0 12.64 2.32 34.33-.63 29-18-4.95-9.05-15.92-6.98-25-7-10.25.63-21.17-1.29-31 1z"/></svg>